<svg height="512" viewBox="0 0 64 64" width="512" xmlns="http://www.w3.org/2000/svg"><g id="home-laptop-monitor-smartphone"><path d="m60 46v11h-12v-11a2.006 2.006 0 0 1 2-2h8a2.006 2.006 0 0 1 2 2z" fill="#2488ff"/><path d="m60 57v2a2.006 2.006 0 0 1 -2 2h-8a2.006 2.006 0 0 1 -2-2v-2z" fill="#e9e9ea"/><path d="m18 47v9h-14v-9a1 1 0 0 1 1-1h12a1 1 0 0 1 1 1z" fill="#2488ff"/><path d="m19 56v2a1 1 0 0 1 -1 1h-14a1 1 0 0 1 -1-1v-2z" fill="#e9e9ea"/><path d="m30 57h4v4h-4z" fill="#57565c"/><rect fill="#2488ff" height="11" rx="1" width="16" x="24" y="46"/><path d="m47 19v16h-30v-16l15-9z" fill="#e9e9ea"/><path d="m48 12v4l-16-9-16 9v-4l16-9z" fill="#ff9811"/><path d="m44 3v8.75l-5-2.81v-5.94z" fill="#ff9811"/><circle cx="32" cy="17" fill="#00eed1" r="3"/><path d="m29 26h6v9h-6z" fill="#c0ab91"/><path d="m58 43h-3v-3a1 1 0 0 0 -1-1h-20.28a1.914 1.914 0 0 0 -.72-.72v-2.28h14a1 1 0 0 0 1-1v-16a.99.99 0 0 0 -.49-.86l-15-9a.984.984 0 0 0 -1.02 0l-15 9a.99.99 0 0 0 -.49.86v16a1 1 0 0 0 1 1h14v2.28a1.914 1.914 0 0 0 -.72.72h-20.28a1 1 0 0 0 -1 1v5h-4a2.006 2.006 0 0 0 -2 2v8a1 1 0 0 0 -1 1v2a2.006 2.006 0 0 0 2 2h14a2.006 2.006 0 0 0 2-2v-2a1 1 0 0 0 -1-1v-8a2.006 2.006 0 0 0 -2-2h-6v-4h19.28a1.914 1.914 0 0 0 .72.72v3.28h-6a2.006 2.006 0 0 0 -2 2v9a2.006 2.006 0 0 0 2 2h4v2h-3v2h12v-2h-3v-2h4a2.006 2.006 0 0 0 2-2v-9a2.006 2.006 0 0 0 -2-2h-6v-3.28a1.914 1.914 0 0 0 .72-.72h19.28v2h-3a3.009 3.009 0 0 0 -3 3v13a3.009 3.009 0 0 0 3 3h8a3.009 3.009 0 0 0 3-3v-13a3.009 3.009 0 0 0 -3-3zm-40 14v1h-14v-1zm-1-10v8h-12v-8zm11-21v8h-10v-14.43l14-8.4 14 8.4v14.43h-10v-8a1 1 0 0 0 -1-1h-6a1 1 0 0 0 -1 1zm5 34h-2v-2h2zm6-13v9h-14v-9zm-9-13v-7h4v7zm29 25a1 1 0 0 1 -1 1h-8a1 1 0 0 1 -1-1v-1h10zm0-3h-10v-10a1 1 0 0 1 1-1h8a1 1 0 0 1 1 1z"/><path d="m7 48h4v2h-4z"/><path d="m7 52h6v2h-6z"/><path d="m27 48h4v2h-4z"/><path d="m27 52h7v2h-7z"/><path d="m51 46h4v2h-4z"/><path d="m51 50h6v2h-6z"/><path d="m48.49 11.13-3.49-1.96v-6.17a1 1 0 0 0 -1-1h-5a1 1 0 0 0 -1 1v2.23l-5.51-3.1a1 1 0 0 0 -.98 0l-16 9a1.013 1.013 0 0 0 -.51.87v4a.987.987 0 0 0 .5.86 1 1 0 0 0 .99.01l15.51-8.72 15.51 8.72a.947.947 0 0 0 .49.13 1.015 1.015 0 0 0 1-1v-4a1.013 1.013 0 0 0 -.51-.87zm-8.49-7.13h3v4.04l-3-1.69zm7 10.29-14.51-8.16a.988.988 0 0 0 -.98 0l-14.51 8.16v-1.71l15-8.43 15 8.43z"/><path d="m32 21a4 4 0 1 0 -4-4 4 4 0 0 0 4 4zm0-6a2 2 0 1 1 -2 2 2 2 0 0 1 2-2z"/></g></svg>